# xmcd CD database file
#
# Track frame offsets:
#	150
#	20509
#	37991
#	61225
#	80265
#	99370
#	119998
#	141569
#	158514
#	177333
#	198882
#	220005
#	243535
#
# Disc length: 3530 seconds
#
# Revision: 1
# Processed by: cddbd v1.5.2PL0 Copyright (c) Steve Scherf et al.
# Submitted via: jetAudio 7
#
DISCID=af0dc80d
DTITLE=刘罡 李慧瑜 - 那个季节里的歌II
DYEAR=2004
DGENRE=Blues
TTITLE0=[1] 无声的雨
TTITLE1=[2] 怨苍天变了心
TTITLE2=[3] 哭砂
TTITLE3=[4] 你的眼睛
TTITLE4=[5] 唯一
TTITLE5=[6] 爱上一个不回家的人
TTITLE6=[7] 爱与哀愁
TTITLE7=[8] 味道
TTITLE8=[9] 原来你什么都不想要
TTITLE9=[10] 来生缘
TTITLE10=[11] 吻别
TTITLE11=[12] 雨一直下
TTITLE12=[13] 堆积情感
EXTD=
EXTT0=
EXTT1=
EXTT2=
EXTT3=
EXTT4=
EXTT5=
EXTT6=
EXTT7=
EXTT8=
EXTT9=
EXTT10=
EXTT11=
EXTT12=
PLAYORDER=
